<svg xmlns="http://www.w3.org/2000/svg" xmlns:xlink="http://www.w3.org/1999/xlink" viewBox="0 0 117 21" fill="#fff" fill-rule="evenodd" stroke="#000" stroke-linecap="round" stroke-linejoin="round"><use xlink:href="#A" x=".5" y=".5"/><symbol id="A" overflow="visible"><g stroke="none" fill-rule="nonzero"><path d="M45.351 1.758A1.76 1.76 0 0 1 46.23.235c.543-.315 1.214-.313 1.757 0s.879.893.879 1.522a1.76 1.76 0 0 1-1.757 1.693 1.76 1.76 0 0 1-1.757-1.693" fill="#273b7d"/><path d="M73.078 13.478c0-.975.786-1.762 1.754-1.762a1.76 1.76 0 0 1 1.258 3.006c-.503.506-1.262.659-1.922.386a1.76 1.76 0 0 1-1.09-1.63" fill="#499fdd"/><path d="M16.521 12.715c-1.513 0-2.565-1.202-2.565-2.92s1.052-2.918 2.566-2.918c1.521 0 2.585 1.199 2.585 2.918 0 1.745-1.04 2.92-2.586 2.92zm0-8.404c-3.202 0-5.526 2.307-5.526 5.483s2.325 5.483 5.526 5.483c3.215 0 5.547-2.306 5.547-5.483s-2.333-5.485-5.546-5.485m25.437 5.759c-.11-.215-.252-.416-.419-.591l-.098-.102.103-.098a4.34 4.34 0 0 0 .441-.551l2.815-4.2h-3.431l-2.123 3.286c-.12.176-.362.264-.726.264h-.483V1.865c0-1.242-.775-1.411-1.611-1.411h-1.432l.004 14.661h3.04v-4.398h.285c.346 0 .581.04.69.229l1.677 3.165c.469.859.935 1.004 1.814 1.004h2.329l-1.735-2.869-1.15-2.178m14.755-5.784c-1.547 0-2.533.688-3.086 1.269l-.184.186-.066-.253c-.162-.612-.71-.964-1.533-.964H50.47l.009 10.59h3.019V10.23c0-.49.061-.891.188-1.269.335-1.144 1.273-1.855 2.444-1.855.942 0 1.309.498 1.309 1.783v4.614c0 1.097.508 1.609 1.606 1.609h1.437l-.005-6.736c0-2.675-1.306-4.09-3.777-4.09m-9.546.24h-1.432l.01 10.59h1.526l.054.002.712-.002h.707v-.004h.005l.006-8.977c0-1.083-.518-1.608-1.589-1.608m-18.779 8.199c-1.513 0-2.566-1.202-2.566-2.92s1.052-2.918 2.567-2.918 2.585 1.199 2.585 2.918c0 1.745-1.04 2.92-2.585 2.92zm0-8.404c-3.204 0-5.529 2.307-5.529 5.483s2.325 5.483 5.532 5.483 5.547-2.306 5.547-5.483S31.6 4.32 28.378 4.32" fill="#273b7d"/><path d="M93.076 12.715c-1.513 0-2.568-1.202-2.568-2.92s1.055-2.918 2.568-2.918c1.52 0 2.586 1.199 2.586 2.918 0 1.745-1.04 2.92-2.586 2.92zm0-8.404c-3.204 0-5.528 2.307-5.528 5.483s2.325 5.483 5.528 5.483c3.211 0 5.547-2.306 5.547-5.483s-2.325-5.485-5.547-5.485" fill="#499fdd"/><path d="M66.846 12.249c-1.652 0-2.24-1.439-2.24-2.79 0-.595.15-2.533 2.08-2.533.958 0 2.235.274 2.235 2.631 0 2.224-1.13 2.69-2.077 2.69zM70.49 4.5c-.573 0-1.013.229-1.224.646l-.083.162-.139-.122c-.487-.421-1.361-.922-2.778-.922-2.823 0-4.724 2.121-4.724 5.262s1.967 5.355 4.78 5.355c.961 0 1.721-.225 2.323-.68l.245-.175v.294c0 1.415-.914 2.196-2.572 2.196a6.1 6.1 0 0 1-2.032-.374c-.639-.193-1.016-.033-1.273.609l-.24.592-.339.866.208.122c1.062.563 2.444.899 3.692.899 2.57 0 5.573-1.316 5.573-5.018L71.92 4.5h-1.43M5.267 12.595l-2.457-.002V9.655c0-.629.245-.955.781-1.03h1.677c1.196 0 1.958.754 1.958 1.974-.001 1.253-.755 1.995-1.958 1.995zM2.81 4.669v-.773c0-.677.286-.999.914-1.04h1.258c1.077 0 1.713.645 1.713 1.713 0 .822-.443 1.783-1.685 1.783H2.799zm5.595 2.932l-.444-.25.388-.33c.453-.388 1.207-1.261 1.207-2.766C9.556 1.95 7.769.462 5.003.462H1.486A1.54 1.54 0 0 0 0 1.984v13.095h5.067c3.075 0 5.06-1.674 5.06-4.267 0-1.395-.641-2.59-1.72-3.197" fill="#273b7d"/><path d="M112.108 4.324a4.16 4.16 0 0 0-3.241 1.57l-.218.277-.171-.31c-.561-1.019-1.522-1.537-2.86-1.537-1.404 0-2.345.783-2.782 1.248l-.286.31-.122-.408c-.159-.587-.682-.909-1.472-.909h-1.269l-.012 10.549h2.882v-4.657a5.21 5.21 0 0 1 .153-1.234c.275-1.126 1.032-2.325 2.303-2.203.783.076 1.167.682 1.167 1.852v6.241h2.903v-4.657c-.011-.43.044-.86.163-1.274.245-1.074 1.023-2.176 2.249-2.176.888 0 1.216.49 1.216 1.853v4.712c0 1.065.475 1.542 1.542 1.542h1.356l.002-6.735c0-2.692-1.185-4.056-3.515-4.056m-26.231 7.127c-.009.012-1.248 1.318-2.882 1.318-1.488 0-2.991-.913-2.991-2.937 0-1.76 1.165-2.99 2.834-2.99.541 0 1.158.193 1.254.52l.012.055a1.06 1.06 0 0 0 1.028.78l1.591.002v-1.38c0-1.821-2.317-2.482-3.875-2.482-3.334 0-5.752 2.32-5.752 5.517s2.391 5.512 5.691 5.512c2.861 0 4.406-1.881 4.433-1.899l.083-.103-1.251-2.074-.165.175" fill="#499fdd"/></g></symbol></svg>