<svg xmlns="http://www.w3.org/2000/svg" xmlns:xlink="http://www.w3.org/1999/xlink" viewBox="0 0 96 54" fill="#fff" fill-rule="evenodd" stroke="#000" stroke-linecap="round" stroke-linejoin="round"><use xlink:href="#A" x=".5" y=".5"/><symbol id="A" overflow="visible"><g stroke="none" fill-rule="nonzero"><path d="M47.28 0c-6.426 0-12.231 1.618-16.814 4.61l-7.702.007s1.817 2.426 2.407 4.872l19.497 14.957 2.616 3.911 2.642-3.945L69.463 9.479c.58-2.462 2.418-4.92 2.418-4.92l-8.207-.006C59.07 1.578 53.476 0 47.279 0z" fill="#000a12"/><path d="M59.198 4.521c-1.322.037-2.63.288-3.872.742a12.23 12.23 0 0 0-6.912 6.398c-.621 1.347-.973 2.771-1.084 4.204-.457-6.282-5.642-11.266-12.009-11.396 3.522-1.507 7.569-2.322 11.96-2.322 4.416 0 8.403.796 11.922 2.374" fill="#fcc40f"/></g><g stroke="#000a12"><path d="M23.912 17.259c0-6.1 4.91-11.01 11.01-11.01s11.01 4.911 11.01 11.01-4.911 11.01-11.01 11.01-11.01-4.91-11.01-11.01z" fill-rule="nonzero" stroke-width="2.562"/><path d="M29.972 17.259a4.94 4.94 0 1 1 9.901 0 4.94 4.94 0 1 1-9.901 0z" fill="none" stroke-width="2.235"/></g><g fill-rule="nonzero"><path d="M32.878 17.259a2.04 2.04 0 1 1 4.089 0 2.04 2.04 0 1 1-4.089 0z" stroke="none" fill="#ef6a45"/><path d="M48.683 17.237c0-6.1 4.91-11.01 11.01-11.01s11.01 4.91 11.01 11.01-4.911 11.01-11.01 11.01-11.01-4.91-11.01-11.01z" stroke-width="2.562" stroke="#000a12"/></g><path d="M54.743 17.237a4.94 4.94 0 1 1 9.901 0 4.94 4.94 0 1 1-9.901 0z" stroke="#000a12" fill="none" stroke-width="2.235"/><g stroke="none" fill-rule="nonzero"><path d="M57.648 17.238a2.04 2.04 0 1 1 4.089 0 2.04 2.04 0 1 1-4.089 0z" fill="#00b087"/><path d="M17.128 33.136c-1.118-.001-1.68 1.35-.9 2.14a1.26 1.26 0 0 0 2.117-1.21 1.26 1.26 0 0 0-1.228-.931zm-12.975 1.12l-.146.053-1.9.652v2.48H0v1.666h2.046v5.34c0 2.543.867 3.58 2.988 3.58.542 0 1.057-.07 1.575-.208l.08-.023-.02-1.722-.15.048c-.414.15-.742.22-.998.22-.993 0-1.366-.563-1.366-2.077v-5.16h2.434v-1.664H4.155v-3.186zm21.48 2.942c-1.446 0-2.664.7-3.475 1.934v-1.7h-1.93v14.64h2.1v-5.68c.762 1.036 1.855 1.602 3.215 1.602 2.667 0 4.387-2.187 4.387-5.565 0-3.137-1.727-5.244-4.307-5.244zm-12.227.06c-1.223 0-2.208.66-2.826 1.87v-1.687H8.653v10.4h2.1v-5.22c0-2.192.92-3.395 2.585-3.395.24 0 .477.037.76.116l.136.04.068-2.054zm2.67.183v10.4h2.1v-10.4h-2.1zm9.05 1.5c1.63 0 2.607 1.353 2.607 3.62 0 2.3-1.03 3.74-2.687 3.74-1.67 0-2.708-1.424-2.708-3.72 0-2.2 1.094-3.64 2.788-3.64z" fill="#000a12"/><path d="M48.965 32.477v6.377c-.777-1.083-1.858-1.657-3.254-1.657-2.576 0-4.306 2.125-4.306 5.282 0 3.254 1.752 5.527 4.267 5.527 1.5 0 2.648-.66 3.455-1.942v1.777h1.95V32.477h-2.1zm15.864.66c-1.117 0-1.677 1.35-.888 2.14s2.14.232 2.142-.885a1.26 1.26 0 0 0-1.254-1.256zm-28.73 4.06c-1.286 0-2.415.244-3.453.744l-.065.03.024 1.8.163-.093c.993-.555 1.93-.838 2.786-.838 1.527 0 2.4.876 2.4 2.404v.088H36.75c-3.47 0-5.384 1.258-5.384 3.54 0 1.832 1.38 3.112 3.354 3.112 1.453 0 2.578-.57 3.378-1.645v1.502h1.907v-6.297c0-2.883-1.312-4.35-3.905-4.35zm45.73 0c-3.17 0-5.14 2.086-5.14 5.447s1.97 5.443 5.14 5.443c3.184 0 5.163-2.085 5.163-5.443s-1.98-5.447-5.163-5.447zm11.88.06c-1.218 0-2.207.66-2.827 1.87v-1.686h-1.925v10.4h2.1v-5.22c0-2.192.917-3.395 2.585-3.395.24 0 .475.036.758.116l.136.04.07-2.054-.908-.073zm-21.528.064c-2.287 0-3.823 1.118-3.823 2.787 0 1.465 1.006 2.238 2.862 3.14 1.17.578 1.784.915 1.784 1.726 0 .83-.755 1.37-1.918 1.37-.83 0-1.744-.235-2.648-.678l-.155-.078-.07 1.834.073.03c.865.343 1.788.518 2.718.517 2.58 0 4.248-1.232 4.248-3.134 0-1.588-1.057-2.4-2.884-3.243-1.34-.627-1.902-1-1.902-1.663 0-.63.625-1.043 1.6-1.043a5.85 5.85 0 0 1 2.53.576l.15.07.096-1.794-.082-.032c-.88-.254-1.74-.384-2.567-.384zm-19.817.12l5.098 10.4 5.24-10.4h-2.205l-2.992 6.004-2.765-6.004h-2.378zm11.4 0v10.4h2.1v-10.4h-2.112zm18.075 1.42c1.78 0 2.93 1.476 2.93 3.76 0 2.27-1.15 3.738-2.93 3.738-1.752 0-2.93-1.502-2.93-3.738 0-2.246 1.177-3.76 2.93-3.76zm-35.67.022c1.745 0 2.785 1.387 2.785 3.72 0 2.22-1.076 3.66-2.746 3.66-1.605 0-2.604-1.404-2.604-3.66s1.007-3.72 2.565-3.72zm-9.308 3.934h1.085v.636c0 1.793-1.078 2.948-2.75 2.948-1.018 0-1.732-.67-1.732-1.632 0-1.26 1.206-1.952 3.396-1.952z" fill="#00b087"/></g></symbol></svg>