<svg width="651" height="157" viewBox="0 0 651 157" fill="none" xmlns="http://www.w3.org/2000/svg">
<g clip-path="url(#clip0)">
<path fill-rule="evenodd" clip-rule="evenodd" d="M117.3 40.6C129 4.2 129.4 2.7 127.5 1.4C125.903 0.202366 137.155 0.000792702 207.184 2.33948e-06H94.2007C113.6 0.100004 116.1 0.300013 113.5 1.4C111.9 2.1 109.6 3.7 108.5 5C107.4 6.2 103.1 17.6 98.9 30.3L91.4 53.5L76.2 53.8C67.8 53.9 61 53.7 61 53.2C61 52.7 64.2 43.2 68 32.1C75.3 11 76.4 4.6 73.4 1.6C72.005 0.105334 73.8865 0.000727564 93.9841 2.33948e-06H0.00216447L27.8 0.0999946L28.0513 0.100953C54.0076 0.200009 55.1801 0.204483 49 1.59999C35.2 4.49999 24.1 10.2 14.5 19.1C5.8 27.3 2 34.9 2 44C2 56.6 8.7 65 18.8 65C24.7 65 29.6 62.5 33.2 57.6L36.1 53.6L33.3 52.2C27.1 49 23 43.5 23 38.2C23 28.1 33.9 15.2 45.9 11.1C48.7 10.2 49.7 10.2 50.7 11.3C51.8 12.4 51.2 15.1 47.1 27.6C44.4 35.8 38.5 54.2 34 68.5C29.5 82.8 24.3 97.7 22.4 101.6C18.9 108.8 14.6 114 13.3 112.7C12.9 112.3 13.2 109.1 13.9 105.5C15.5 97.6 14.8 94.2 11.6 93.4C7.3 92.4 5.8 93.4 2.9 99L0 104.5V116.1L2.6 118.5C7.4 122.9 17 123.1 25.4 119C37.3 113.3 45.7 101.3 51.9 81.5C53.6 76 55.7 69.6 56.6 67.2L58.2 63H73.1C81.3 63 88 63.2 88 63.4C88 63.6 86.4 70 84.4 77.6C76.8 106.8 80.2 120.5 95.4 121.8C103.1 122.4 110.2 118.9 117.1 111L122.3 105.2L124.9 110.3C126.6 113.6 129.1 116.6 131.8 118.5C135.7 121.2 136.9 121.5 143.8 121.5C150.4 121.5 152.2 121.1 156.6 118.7C167.4 112.7 177 102 183.9 88.3C186.3 83.4 187.6 81.9 189.8 81.4C197.6 79.8 201.7 77.4 207.6 71.4L213.6 65.2L218.3 73.4C224.5 84.2 225.4 87 224.7 94.1C223.7 105.4 216.9 113 207.9 113C200.4 113 196.2 107.2 199.4 101.3C203.9 93.1 204.3 91.6 202.8 89C201.8 87.2 200.5 86.4 197.9 86.2C187.3 85.3 180.9 104.8 188.8 114.1C198.6 125.8 223.2 123.4 237.7 109.2C248.6 98.6 249.8 82.2 240.5 69.4C231.1 56.4 229.8 54 229.3 49.8C228.7 44 231.4 39.8 236.8 38.2C244.7 35.8 242.5 30.3 234 31.5C226.2 32.6 220 35.1 216 38.9C211.9 42.7 209.5 49.2 210.5 53.3C211.4 56.8 202 68.6 195.7 71.8C193.1 73.2 190.7 74 190.4 73.7C190 73.3 190.3 71.1 190.9 68.6C191.5 66.1 192 60.6 192 56.3C191.9 43.6 188.1 37.7 178 35C167.4 32.1 153.9 36.6 143.3 46.4C130.7 58.1 124.6 70.9 121.5 92.1C120.9 96.4 116 104.1 112.3 106.5C104.7 111.5 99.6 109.6 99.7 101.7C99.8 95.8 102.5 86.6 117.3 40.6ZM286.3 157H587.5L593.2 154.6C608.7 148.2 618 136.4 627.6 110.8C630.6 102.8 650 41.9 650 40.5C650 40.2 650.2 40 650.5 40C650.8 40 651 66.3 651 98.5V35.9L645.6 35.3C639 34.6 633.6 36.3 631.2 39.8C629.3 42.4 624.9 55.1 619.5 73.5C615.4 87.2 607.8 100.6 600.9 106.4C596.6 110.1 591.1 109.8 589.2 105.8C587.2 101.6 589 94.1 599 63.5C603.9 48.7 607.7 36.4 607.4 36.1C607.2 35.8 604.3 35.4 601.1 35.2C594.8 34.7 591.1 36.1 587.3 40.2C584 43.8 574.4 73.4 571.5 89C569.8 98.2 567.3 102.5 561 106.8C556.8 109.6 551.5 109.7 550 107.1C547.6 102.5 548.8 97.2 560.2 62.3C564.7 48.4 568.1 36.7 567.7 36.3C567.3 35.9 564.4 35.5 561.2 35.3C557.1 35 554.5 35.4 552 36.7C548.6 38.5 548.4 38.5 545.9 36.7C536.6 30 517 37 504.1 51.6C486.9 71 476.5 101.5 482.8 114C486.9 122.2 495.5 124.1 505.6 119C511.6 116 522.2 106.7 527.7 99.6L530.7 95.6V102.7C530.7 114.3 535.2 120.7 544.1 121.7C551.4 122.5 556.4 120.5 563.3 114.1L569.5 108.2L572 113.4C575.2 119.9 579.3 122.3 586.5 121.7C592.9 121.3 597.8 118.9 603.5 113.6C608.7 108.7 608.7 109 603 122.2C596.3 137.6 589.3 146.2 582.2 147.6C577.6 148.5 577.2 146.2 580.4 138.4C583.5 130.7 583.6 128.6 581 126C576.4 121.4 571 125.2 566.9 136C563.6 144.8 564.6 152.1 569.8 155.3C572.3 156.8 553.3 156.9 286.3 157ZM651 0L207.602 2.33948e-06C276.4 0.100003 289 0.300009 286.5 1.4C281.6 3.5 280.3 5.9 275.3 20.6L270.5 34.5L266.5 34.8C261.5 35.2 259.8 36.6 260.2 39.9C260.5 42.1 261.1 42.5 264.1 42.8L267.8 43.1L262 60.8C255 81.9 252.9 91.8 252.9 102.3C252.9 111.6 254.8 116.4 259.9 119.7C267.3 124.7 280 121.4 287.9 112.3L291.9 107.9L292.9 111.7C294.9 119.1 301.6 122.8 309.7 120.9C317.4 119.2 322.2 116 332.3 105.9L342 96.1V103.3C342 114.9 346 120.4 355.2 121.6C362 122.5 368.2 119.9 375.3 113.2C379.7 109 381 108.1 381 109.6C381 112.6 384.6 117.8 388.2 120.1C390.7 121.6 392.7 122 396.3 121.7C403.1 121.1 408.4 117 415 107.2L420.5 99.1L421.7 105.6C423.9 117.5 429 122.5 438 121.7C450.9 120.6 464 107.2 476.3 82.5C486.6 61.8 493 36.3 489.1 31.6C487.2 29.3 481.5 29.6 476.9 32.2L473 34.4V41.1C473 61.9 462.4 92.3 451.2 104C442.3 113.2 439.5 110.2 440.3 92.5C440.8 80.9 443.4 69 449 52.6C450.6 47.6 452 43.1 452 42.4C452 40 443.7 39.6 438.8 41.8C433 44.3 430.9 48.5 426.3 67.2C423.8 77.6 421.6 83.9 418.2 90.5C410.5 105.5 400.2 113.7 398.4 106.3C396.7 99.9 402.1 81.1 414 51.8C417.8 42.5 420.5 34.8 420.1 34.5C419.7 34.3 417.4 33.8 415.1 33.4C409.6 32.5 402.7 35.2 399.6 39.3C395.4 44.9 382 84.9 382 92C382 95.2 377.3 102.8 373.5 105.8C367.5 110.5 361.5 109.9 360.4 104.6C359.5 99.5 361 93.4 370.7 63.7C375.4 49 379 36.7 378.6 36.3C378.3 35.9 375.4 35.5 372.2 35.2C368 35 365.6 35.4 363 36.7C359.5 38.5 359.4 38.5 356.1 36.3C350.6 32.6 342.1 33.1 333 37.7C316.4 45.9 300.9 66.7 294.1 89.7C289.9 103.9 278.6 113.6 273 108C271 106 270.8 105.1 271.3 100.1C272 94.1 277.1 76.5 284.2 56L288.5 43.5L294.5 43.2C301.1 42.9 303 41.8 303 38.5C303 35.8 301.3 35 295.5 35H291.2L296 20.7C296.495 19.2303 296.952 17.876 297.373 16.6278L297.382 16.6025L297.382 16.6022L297.382 16.6015C301.295 5.01034 302.117 2.57515 301.303 1.74498C301.086 1.52417 300.754 1.41691 300.333 1.28112C300.168 1.22796 299.99 1.17043 299.8 1.1C298.4 0.5 364.2 0.1 474.3 0.1L651 0ZM148.9 66.4C154.1 55.5 159.1 48.7 164.3 45.5C169.4 42.5 172.3 42.3 175 45C177.2 47.2 177.5 48.6 176 49.5C174.6 50.3 171 62.6 171 66.4C171 68.1 171.9 71.3 173 73.5C174.1 75.7 175 78.1 175 79C175 82.4 166.9 97.2 162.4 102C159.7 104.9 156 107.6 153.4 108.6C149.3 110.2 148.9 110.2 146.4 108.6C138.5 103.4 139.6 86.4 148.9 66.4ZM343.3 45.1C328.7 52.3 309.9 88.5 313.4 102.4C315.2 109.6 327.5 101.3 340.3 84.4L340.5 84.1333C342.186 81.8862 343.311 80.3858 344.252 78.7771C346.141 75.5446 347.282 71.8749 350.717 60.8317L351.1 59.6C355.3 46.2 355.4 45.7 353.5 44.4C350.9 42.5 348.2 42.6 343.3 45.1ZM518.6 57.9C523.2 51.6 530.1 45.6 534.2 44.3C538.9 42.8 540.3 42.8 542.7 44.5L544.8 46L542 54.2C540.4 58.8 538.2 65.6 537.1 69.5C533.9 80.5 519.2 99.3 510.5 103.4C506.6 105.3 503.4 105.4 502.4 103.8C498.9 98.2 508.1 72.2 518.6 57.9Z" fill="#FF640A"/>
</g>
<defs>
<clipPath id="clip0">
<rect width="651" height="157" fill="white"/>
</clipPath>
</defs>
</svg>
